HIERARCHY
ROOT Hips
{
	OFFSET	0.000000	0.000000	0.000000
	CHANNELS 6 Xposition Yposition Zposition Zrotation Xrotation Yrotation
	JOINT LeftHip
	{
		OFFSET	4.740440	-3.195970	-0.322709
		CHANNELS 3 Zrotation Xrotation Yrotation
		JOINT LeftKnee
		{
			OFFSET	-1.605680	-15.592300	1.005510
			CHANNELS 3 Zrotation Xrotation Yrotation
			JOINT LeftAnkle
			{
				OFFSET	-0.632401	-16.421000	-1.413730
				CHANNELS 3 Zrotation Xrotation Yrotation
				End Site
				{
					OFFSET	0.008423	-2.933000	-1.684880
				}
			}
		}
	}
	JOINT RightHip
	{
		OFFSET	-4.740440	-3.195970	-0.322709
		CHANNELS 3 Zrotation Xrotation Yrotation
		JOINT RightKnee
		{
			OFFSET	1.605680	-15.592300	1.005510
			CHANNELS 3 Zrotation Xrotation Yrotation
			JOINT RightAnkle
			{
				OFFSET	0.632401	-16.421000	-1.413730
				CHANNELS 3 Zrotation Xrotation Yrotation
				End Site
				{
					OFFSET	-0.008423	-2.933000	-1.684880
				}
			}
		}
	}
	JOINT Chest
	{
		OFFSET	0.000000	3.468200	0.078401
		CHANNELS 3 Zrotation Xrotation Yrotation
		JOINT LeftCollar
		{
			OFFSET	3.857650	15.070700	-0.011583
			CHANNELS 3 Zrotation Xrotation Yrotation
			JOINT LeftShoulder
			{
				OFFSET	3.979720	-1.940530	-0.165223
				CHANNELS 3 Zrotation Xrotation Yrotation
				JOINT LeftElbow
				{
					OFFSET	0.615844	-10.986600	-0.673886
					CHANNELS 3 Zrotation Xrotation Yrotation
					JOINT LeftWrist
					{
						OFFSET	0.826843	-10.854500	1.034220
						CHANNELS 3 Zrotation Xrotation Yrotation
						End Site
						{
							OFFSET	-1.679080	-8.456540	0.936217
						}
					}
				}
			}
		}
		JOINT RightCollar
		{
			OFFSET	-3.857650	15.070700	-0.011583
			CHANNELS 3 Zrotation Xrotation Yrotation
			JOINT RightShoulder
			{
				OFFSET	-3.979720	-1.940530	-0.165223
				CHANNELS 3 Zrotation Xrotation Yrotation
				JOINT RightElbow
				{
					OFFSET	-0.615845	-10.986600	-0.673886
					CHANNELS 3 Zrotation Xrotation Yrotation
					JOINT RightWrist
					{
						OFFSET	-0.826843	-10.854500	1.034220
						CHANNELS 3 Zrotation Xrotation Yrotation
						End Site
						{
							OFFSET	1.679080	-8.456540	0.936217
						}
					}
				}
			}
		}
		JOINT Neck
		{
			OFFSET	0.000000	15.101400	0.055730
			CHANNELS 3 Zrotation Xrotation Yrotation
			JOINT Head
			{
				OFFSET	0.000000	4.185120	1.488260
				CHANNELS 3 Zrotation Xrotation Yrotation
				End Site
				{
					OFFSET	0.000000	7.773420	-0.106016
				}
			}
		}
	}
}
MOTION
Frames:    16
Frame Time: 0.016667
-4.838592	37.563091	22.088230	2.032586	-11.880973	-16.212925	-7.477989	12.405549	1.796185	-2.163816	-1.073362	9.925617	6.104937	-1.997003	12.300957	-14.995571	-2.731170	-4.328827	-2.540029	23.299187	9.594984	11.220201	-9.190520	5.471793	-4.816391	10.589704	-4.529041	-4.894804	2.937931	7.928225	4.388889	1.184563	7.135669	-7.146765	-15.169888	-10.878205	18.954700	11.906297	-19.835709	0.071400	2.863201	0.495245	-7.860257	-2.995624	0.750776	-2.193229	-10.694752	9.190128	-14.194097	-1.163626	25.202093	-4.456008	6.798784	-2.312583	5.451422	8.884515	-9.475650	
-4.838592	37.563091	22.088230	2.032586	-11.880973	-16.212925	-7.477989	12.405549	1.796185	-2.163816	-1.073362	9.925617	6.104937	-1.997003	12.300957	-14.974929	-2.711413	-4.290518	-2.536135	23.307707	9.571756	11.207146	-9.220801	5.456219	-4.816391	10.589704	-4.529041	-4.894804	2.937931	7.928225	4.388889	1.184563	7.135669	-7.088286	-15.069554	-10.862853	18.915585	11.811213	-19.841248	0.071400	2.863201	0.495245	-7.852429	-2.954954	0.718424	-2.215957	-10.563313	9.245459	-14.263892	-1.133660	25.150892	-4.530263	6.801419	-2.307778	5.484719	8.939932	-9.463795	
-4.838592	37.563091	22.088230	2.032586	-11.880973	-16.212925	-7.477989	12.405549	1.796185	-2.163816	-1.073362	9.925617	6.104937	-1.997003	12.300957	-14.967777	-2.705121	-4.278231	-2.535333	23.310875	9.564526	11.202772	-9.230957	5.451069	-4.816391	10.589704	-4.529041	-4.894804	2.937931	7.928225	4.388889	1.184563	7.135669	-7.072317	-15.042151	-10.858644	18.903595	11.782983	-19.831434	0.071400	2.863201	0.495245	-7.853520	-2.950608	0.680331	-2.212859	-10.529473	9.288008	-14.306375	-1.041815	25.149170	-4.572085	6.819130	-2.284366	5.524564	8.942801	-9.487310	
-4.838592	37.563091	22.088230	2.032586	-11.880973	-16.212925	-7.477989	12.405549	1.796185	-2.163816	-1.073362	9.925617	6.104937	-1.997003	12.300957	-14.945992	-2.686828	-4.242599	-2.533841	23.320768	9.543039	11.189855	-9.261086	5.436749	-4.816391	10.589704	-4.529041	-4.923305	2.954410	7.954958	4.415286	1.162430	7.112028	-7.033626	-14.975350	-10.849353	18.931038	11.839764	-19.857147	0.049967	2.891798	0.481702	-7.867868	-2.971715	0.671913	-2.193601	-10.374845	9.327357	-14.350564	-1.082651	25.093657	-4.573043	6.862677	-2.282471	5.537828	8.990885	-9.477813	
-4.838592	37.563091	22.088230	2.032586	-11.880973	-16.212925	-7.477989	12.405549	1.796185	-2.163816	-1.073362	9.925617	6.104937	-1.997003	12.300957	-14.938890	-2.680642	-4.230824	-2.535108	23.315863	9.531091	11.189264	-9.262457	5.436057	-4.816391	10.589704	-4.529041	-4.958930	2.985778	7.960281	4.446195	1.126277	7.111342	-7.010427	-14.935032	-10.844344	18.917568	11.805929	-19.872433	0.033767	2.913579	0.471296	-7.876492	-2.988672	0.677535	-2.173424	-10.342589	9.332263	-14.367622	-1.070317	25.083792	-4.572205	6.884538	-2.282293	5.548425	8.997781	-9.472643	
-4.838592	37.563091	22.088230	2.032586	-11.880973	-16.212925	-7.477989	12.405549	1.796185	-2.163816	-1.073362	9.925617	6.104937	-1.997003	12.300957	-14.917649	-2.661788	-4.196328	-2.533858	23.323593	9.510118	11.177014	-9.290930	5.422225	-4.816391	10.589704	-4.529041	-4.983012	3.010741	7.954082	4.466366	1.098888	7.120957	-6.984756	-14.890180	-10.839322	18.920753	11.805660	-19.938824	0.025931	2.924361	0.466005	-7.949258	-2.980964	0.682270	-2.108596	-10.247875	9.338498	-14.419243	-1.029525	25.054787	-4.569831	6.943546	-2.281880	5.556734	8.962917	-9.464783	
-4.838592	37.563091	22.088230	2.032586	-11.880973	-16.212925	-7.477989	12.405549	1.796185	-2.163816	-1.073362	9.925617	6.104937	-1.997003	12.300957	-14.910643	-2.655765	-4.185332	-2.529289	23.344948	9.515718	11.164310	-9.320371	5.407405	-4.816391	10.589704	-4.529041	-5.006156	3.036778	7.942832	4.485376	1.070967	7.135653	-6.965518	-14.856869	-10.834863	18.909628	11.778747	-19.932432	0.025931	2.924361	0.466005	-7.974007	-2.975066	0.682432	-2.087589	-10.229342	9.337872	-14.433190	-1.011208	25.050516	-4.569074	6.961721	-2.281771	5.564068	8.965081	-9.460878	
-4.839678	37.562862	22.090769	2.039689	-11.875691	-16.205069	-7.481712	12.406463	1.794872	-2.164039	-1.080160	9.919264	6.104937	-1.997003	12.300957	-14.895142	-2.642353	-4.161995	-2.531446	23.343590	9.493895	11.156119	-9.339184	5.396950	-4.820290	10.583256	-4.536123	-5.019335	3.059976	7.914558	4.494642	1.048520	7.166487	-6.935659	-14.805588	-10.826968	18.936243	11.831968	-19.979069	0.025931	2.924361	0.466005	-8.014473	-2.964483	0.661016	-2.047367	-10.215740	9.358190	-14.455804	-0.965539	25.048080	-4.597244	7.018028	-2.289798	5.604588	8.984476	-9.448085	
-4.840882	37.562599	22.093695	2.047735	-11.869663	-16.196205	-7.486055	12.407578	1.793246	-2.164167	-1.088000	9.912266	6.104937	-1.997003	12.300957	-14.894599	-2.642290	-4.161371	-2.529579	23.355137	9.494198	11.148041	-9.357939	5.387894	-4.824703	10.575904	-4.544111	-5.030895	3.081239	7.887450	4.502620	1.028118	7.195912	-6.923773	-14.785355	-10.823372	18.956545	11.877090	-19.973038	0.025931	2.924361	0.466005	-8.033299	-2.959991	0.661149	-2.038876	-10.146919	9.360009	-14.465412	-1.013689	25.026125	-4.598806	7.035924	-2.290343	5.599791	8.997026	-9.457477	
-4.844035	37.561974	22.101522	2.065277	-11.863738	-16.170633	-7.496577	12.423164	1.787939	-2.164492	-1.110418	9.893180	6.104937	-1.997003	12.300957	-14.888974	-2.628144	-4.162243	-2.535750	23.352966	9.474703	11.140942	-9.375141	5.383990	-4.835288	10.567313	-4.567273	-5.031678	3.082683	7.885606	4.501367	1.031517	7.197523	-6.911436	-14.771273	-10.820142	18.928825	11.919312	-19.960117	0.025931	2.924361	0.466005	-8.108387	-2.901313	0.663946	-1.971220	-10.168814	9.352743	-14.480341	-1.005830	25.016716	-4.616797	7.039476	-2.323097	5.623399	9.088221	-9.430845	
-4.845131	37.561676	22.105221	2.069371	-11.864149	-16.163113	-7.499324	12.430688	1.786387	-2.165312	-1.112919	9.886640	6.104918	-2.001593	12.302436	-14.885073	-2.620061	-4.164970	-2.537480	23.362734	9.470544	11.134521	-9.391537	5.385460	-4.837998	10.567159	-4.574102	-5.031678	3.082683	7.885606	4.499132	1.037480	7.197058	-6.910031	-14.777487	-10.820393	18.900143	11.981638	-19.952263	0.025931	2.924361	0.466005	-8.135837	-2.894765	0.664182	-1.944543	-10.173174	9.350964	-14.480436	-1.008178	25.015942	-4.625417	7.039999	-2.338525	5.638398	9.113721	-9.411481	
-4.848152	37.560936	22.115410	2.080200	-11.865243	-16.143242	-7.506725	12.453025	1.781981	-2.167292	-1.122817	9.869699	6.104878	-2.012907	12.306165	-14.873400	-2.597015	-4.171531	-2.550088	23.357805	9.458693	11.128348	-9.407290	5.386893	-4.845172	10.566759	-4.592151	-5.036319	3.091222	7.874722	4.495109	1.048542	7.207384	-6.905488	-14.797547	-10.821218	18.897814	11.985703	-19.951693	0.025931	2.924361	0.466005	-8.197922	-2.879952	0.664742	-1.883466	-10.188572	9.346692	-14.480436	-1.008178	25.015942	-4.637697	7.072354	-2.362350	5.660532	9.158611	-9.386935	
-4.848959	37.560783	22.118967	2.080661	-11.865255	-16.142424	-7.507269	12.459875	1.785114	-2.168311	-1.123306	9.864251	6.104853	-2.019038	12.308171	-14.866662	-2.590538	-4.168784	-2.551435	23.366863	9.454980	11.122459	-9.422326	5.388246	-4.845473	10.566707	-4.592895	-5.046328	3.109660	7.851225	4.499308	1.038092	7.232338	-6.904750	-14.789374	-10.821400	18.898550	11.969440	-19.912842	0.025931	2.924361	0.466005	-8.215190	-2.875831	0.664888	-1.899347	-10.182860	9.339803	-14.450205	-1.022792	25.012070	-4.648855	7.107270	-2.384735	5.662960	9.155526	-9.370210	
-4.850490	37.560265	22.126850	2.080661	-11.865255	-16.142424	-7.507601	12.469018	1.794101	-2.171614	-1.112211	9.850595	6.104790	-2.038609	12.314632	-14.846658	-2.572248	-4.159094	-2.562011	23.363262	9.444492	11.116619	-9.437240	5.389607	-4.843781	10.581364	-4.574242	-5.054823	3.113443	7.809606	4.493834	1.053284	7.253106	-6.903031	-14.788181	-10.823297	18.905075	11.936383	-19.855169	0.026410	2.909611	0.447021	-8.272734	-2.862101	0.665417	-1.874265	-10.177446	9.331068	-14.438388	-1.028831	25.008020	-4.657126	7.124268	-2.425605	5.676924	9.152287	-9.344444	
-4.850786	37.560040	22.128990	2.080661	-11.865255	-16.142424	-7.507601	12.469018	1.794101	-2.172785	-1.104819	9.848948	6.104763	-2.045877	12.317043	-14.840437	-2.566591	-4.156106	-2.562754	23.372589	9.441301	11.110922	-9.451783	5.390907	-4.842805	10.596764	-4.556201	-5.057691	3.107435	7.780196	4.490706	1.061863	7.262581	-6.899250	-14.804869	-10.823976	18.899307	11.930496	-19.787067	0.027601	2.894174	0.428785	-8.275297	-2.861489	0.665434	-1.885554	-10.178519	9.328182	-14.449308	-1.037238	25.012226	-4.654569	7.124464	-2.446430	5.674462	9.160514	-9.348679	
-4.851755	37.559288	22.136023	2.080661	-11.865255	-16.142424	-7.507601	12.469018	1.794101	-2.176641	-1.080519	9.843606	6.104687	-2.069778	12.324903	-14.828172	-2.561209	-4.151228	-2.568998	23.381145	9.436323	11.105473	-9.465677	5.392160	-4.842402	10.612083	-4.538919	-5.067107	3.114549	7.735023	4.480985	1.088363	7.287765	-6.888281	-14.853298	-10.825950	18.897564	11.929336	-19.762621	0.029297	2.878864	0.411414	-8.275297	-2.861489	0.665434	-1.921126	-10.183196	9.320928	-14.439217	-1.046722	25.017439	-4.649786	7.146509	-2.464930	5.661232	9.196057	-9.370529	
